<svg xmlns="http://www.w3.org/2000/svg" xmlns:xlink="http://www.w3.org/1999/xlink" width="840" height="581.04"><rect width="840" height="581.04" rx="5" ry="5" class="a"/><svg y="0%" x="0%"><circle cx="20" cy="20" r="6" fill="#ff5f58"/><circle cx="40" cy="20" r="6" fill="#ffbd2e"/><circle cx="60" cy="20" r="6" fill="#18c132"/></svg><svg height="521.04" viewBox="0 0 80 52.104" width="800" x="15" xmlns="http://www.w3.org/2000/svg" xmlns:xlink="http://www.w3.org/1999/xlink" y="50"><style>@keyframes i{0%{transform:translateX(0)}10.45%{transform:translateX(-80px)}14.38%{transform:translateX(-160px)}19.26%{transform:translateX(-240px)}25.17%{transform:translateX(-320px)}25.18%{transform:translateX(-400px)}27.64%{transform:translateX(-480px)}30.08%{transform:translateX(-560px)}32.54%{transform:translateX(-640px)}38.41%{transform:translateX(-720px)}55.72%{transform:translateX(-800px)}59.64%{transform:translateX(-880px)}66.97%{transform:translateX(-960px)}71.95%{transform:translateX(-1040px)}77.87%{transform:translateX(-1200px)}83.79%{transform:translateX(-1280px)}83.8%{transform:translateX(-1520px)}88.7%{transform:translateX(-1600px)}91.15%{transform:translateX(-1680px)}93.62%{transform:translateX(-1760px)}96.08%{transform:translateX(-1840px)}to{transform:translateX(-1920px)}}.a{fill:#282d35}.f{fill:#b9c0cb;white-space:pre}</style><g font-family="Monaco,Consolas,Menlo,'Bitstream Vera Sans Mono','Powerline Symbols',monospace" font-size="1.67"><defs><symbol id="1"><text y="1.67" class="f">=========================================================================</text></symbol><symbol id="2"><text y="1.67" class="f">⚡</text><text x="2.004" y="1.67" class="f">dspyer:</text><text x="10.02" y="1.67" class="f">The</text><text x="14.028" y="1.67" class="f">60-Second</text><text x="24.048" y="1.67" class="f">Hero</text><text x="29.058" y="1.67" class="f">Demo</text></symbol><symbol id="3"><text y="1.67" class="f">[*]</text><text x="4.008" y="1.67" class="f">Step</text><text x="9.018" y="1.67" class="f">1:</text><text x="12.024" y="1.67" class="f">Defining</text><text x="21.042" y="1.67" class="f">a</text><text x="23.046" y="1.67" class="f">3-node</text><text x="30.06" y="1.67" class="f">LangGraph</text><text x="40.08" y="1.67" class="f">workflow...</text></symbol><symbol id="4"><text y="1.67" class="f">[*]</text><text x="4.008" y="1.67" class="f">Step</text><text x="9.018" y="1.67" class="f">2:</text><text x="12.024" y="1.67" class="f">Scaffolding</text><text x="24.048" y="1.67" class="f">graph</text><text x="30.06" y="1.67" class="f">topology</text><text x="39.078" y="1.67" class="f">and</text><text x="43.086" y="1.67" class="f">compiling</text><text x="53.106" y="1.67" class="f">to</text><text x="56.112" y="1.67" class="f">DSPy...</text></symbol><symbol id="5"><text y="1.67" class="f">/Users/ram/play/dspyer/dspy_transpiler/compiler.py:667:</text><text x="56.112" y="1.67" class="f">UserWarning:</text><text x="69.138" y="1.67" class="f">Field</text><text x="75.15" y="1.67" class="f">&apos;clea</text></symbol><symbol id="6"><text y="1.67" class="f">ned_query&apos;</text><text x="11.022" y="1.67" class="f">in</text><text x="14.028" y="1.67" class="f">input</text><text x="20.04" y="1.67" class="f">model</text><text x="26.052" y="1.67" class="f">&apos;QueryInput&apos;</text><text x="39.078" y="1.67" class="f">is</text><text x="42.084" y="1.67" class="f">missing</text><text x="50.1" y="1.67" class="f">a</text><text x="52.104" y="1.67" class="f">description.</text><text x="65.13" y="1.67" class="f">Using</text><text x="71.142" y="1.67" class="f">fallback</text></symbol><symbol id="7"><text y="1.67" class="f">Title</text><text x="6.012" y="1.67" class="f">Case</text><text x="11.022" y="1.67" class="f">description.</text></symbol><symbol id="8"><text x="2.004" y="1.67" class="f">sig</text><text x="6.012" y="1.67" class="f">=</text><text x="8.016" y="1.67" class="f">DynamicSignatureBuilder.build(node)</text></symbol><symbol id="9"><text y="1.67" class="f">[+]</text><text x="4.008" y="1.67" class="f">Verification:</text></symbol><symbol id="10"><text x="4.008" y="1.67" class="f">-</text><text x="6.012" y="1.67" class="f">Node</text><text x="11.022" y="1.67" class="f">&apos;clean_query&apos;:</text><text x="26.052" y="1.67" class="f">Native</text><text x="33.066" y="1.67" class="f">passthrough?</text><text x="46.092" y="1.67" class="f">True</text></symbol><symbol id="11"><text x="4.008" y="1.67" class="f">-</text><text x="6.012" y="1.67" class="f">Node</text><text x="11.022" y="1.67" class="f">&apos;log_completion&apos;:</text><text x="29.058" y="1.67" class="f">Native</text><text x="36.072" y="1.67" class="f">passthrough?</text><text x="49.098" y="1.67" class="f">True</text></symbol><symbol id="12"><text x="4.008" y="1.67" class="f">-</text><text x="6.012" y="1.67" class="f">Node</text><text x="11.022" y="1.67" class="f">&apos;ResponseGenerator&apos;:</text><text x="32.064" y="1.67" class="f">Compiled</text><text x="41.082" y="1.67" class="f">to</text><text x="44.088" y="1.67" class="f">DSPy?</text><text x="50.1" y="1.67" class="f">True</text></symbol><symbol id="13"><text y="1.67" class="f">[*]</text><text x="4.008" y="1.67" class="f">Step</text><text x="9.018" y="1.67" class="f">3:</text><text x="12.024" y="1.67" class="f">Running</text><text x="20.04" y="1.67" class="f">transpiled</text><text x="31.062" y="1.67" class="f">program</text><text x="39.078" y="1.67" class="f">(fails</text><text x="46.092" y="1.67" class="f">validation</text><text x="57.114" y="1.67" class="f">on</text><text x="60.12" y="1.67" class="f">first</text><text x="66.132" y="1.67" class="f">pass)...</text></symbol><symbol id="14"><text y="1.67" class="f">[Postprocess]</text><text x="14.028" y="1.67" class="f">Native</text><text x="21.042" y="1.67" class="f">Python</text><text x="28.056" y="1.67" class="f">node</text><text x="33.066" y="1.67" class="f">&apos;log_completion&apos;</text><text x="50.1" y="1.67" class="f">ran</text><text x="54.108" y="1.67" class="f">successfully!</text></symbol><symbol id="15"><text x="14.028" y="1.67" class="f">State</text><text x="20.04" y="1.67" class="f">Citation</text><text x="29.058" y="1.67" class="f">Count:</text><text x="36.072" y="1.67" class="f">1</text></symbol><symbol id="16"><text y="1.67" class="f">[+]</text><text x="4.008" y="1.67" class="f">Self-Correction</text><text x="20.04" y="1.67" class="f">Execution</text><text x="30.06" y="1.67" class="f">Output:</text></symbol><symbol id="17"><text x="4.008" y="1.67" class="f">-</text><text x="6.012" y="1.67" class="f">Response:</text><text x="16.032" y="1.67" class="f">Paris</text><text x="22.044" y="1.67" class="f">is</text><text x="25.05" y="1.67" class="f">the</text><text x="29.058" y="1.67" class="f">capital</text><text x="37.074" y="1.67" class="f">of</text><text x="40.08" y="1.67" class="f">France.</text></symbol><symbol id="18"><text x="4.008" y="1.67" class="f">-</text><text x="6.012" y="1.67" class="f">Citations:</text><text x="17.034" y="1.67" class="f">[&apos;doc_geo&apos;]</text></symbol><symbol id="19"><text x="4.008" y="1.67" class="f">-</text><text x="6.012" y="1.67" class="f">Refinement</text><text x="17.034" y="1.67" class="f">attempts</text><text x="26.052" y="1.67" class="f">taken:</text><text x="33.066" y="1.67" class="f">1</text></symbol><symbol id="20"><text y="1.67" class="f">[*]</text><text x="4.008" y="1.67" class="f">Step</text><text x="9.018" y="1.67" class="f">4:</text><text x="12.024" y="1.67" class="f">Optimizing</text><text x="23.046" y="1.67" class="f">node</text><text x="28.056" y="1.67" class="f">prompts</text><text x="36.072" y="1.67" class="f">using</text><text x="42.084" y="1.67" class="f">BootstrapFewShot...</text></symbol><symbol id="21"><text x="2.004" y="1.67" class="f">0%|</text><text x="57.114" y="1.67" class="f">|</text><text x="59.118" y="1.67" class="f">0/2</text><text x="63.126" y="1.67" class="f">[00:00&lt;?,</text><text x="73.146" y="1.67" class="f">?it/s]</text></symbol><symbol id="22"><text x="1.002" y="1.67" class="f">50%|██████████████████████</text><text x="49.098" y="1.67" class="f">|</text><text x="51.102" y="1.67" class="f">1/2</text><text x="55.11" y="1.67" class="f">[00:01&lt;00:01,</text><text x="70.14" y="1.67" class="f">1.21s/it]</text></symbol><symbol id="23"><text y="1.67" class="f">100%|████████████████████████████████████████████|</text><text x="51.102" y="1.67" class="f">2/2</text><text x="55.11" y="1.67" class="f">[00:02&lt;00:00,</text><text x="70.14" y="1.67" class="f">1.22s/it]</text></symbol><symbol id="24"><text y="1.67" class="f">Bootstrapped</text><text x="13.026" y="1.67" class="f">2</text><text x="15.03" y="1.67" class="f">full</text><text x="20.04" y="1.67" class="f">traces</text><text x="27.054" y="1.67" class="f">after</text><text x="33.066" y="1.67" class="f">1</text><text x="35.07" y="1.67" class="f">examples</text><text x="44.088" y="1.67" class="f">for</text><text x="48.096" y="1.67" class="f">up</text><text x="51.102" y="1.67" class="f">to</text><text x="54.108" y="1.67" class="f">1</text><text x="56.112" y="1.67" class="f">rounds,</text><text x="64.128" y="1.67" class="f">amounting</text><text x="74.148" y="1.67" class="f">to</text><text x="77.154" y="1.67" class="f">2</text><text x="79.158" y="1.67" class="f">a</text></symbol><symbol id="25"><text y="1.67" class="f">ttempts.</text></symbol><symbol id="26"><text y="1.67" class="f">[+]</text><text x="4.008" y="1.67" class="f">Prompt</text><text x="11.022" y="1.67" class="f">Optimization</text><text x="24.048" y="1.67" class="f">Completed!</text></symbol><symbol id="27"><text x="4.008" y="1.67" class="f">Original</text><text x="13.026" y="1.67" class="f">instruction:</text><text x="26.052" y="1.67" class="f">&apos;Provide</text><text x="35.07" y="1.67" class="f">an</text><text x="38.076" y="1.67" class="f">answer</text><text x="45.09" y="1.67" class="f">with</text><text x="50.1" y="1.67" class="f">source</text><text x="57.114" y="1.67" class="f">citations.&apos;</text></symbol><symbol id="28"><text x="4.008" y="1.67" class="f">Optimized</text><text x="14.028" y="1.67" class="f">instruction:</text><text x="27.054" y="1.67" class="f">&apos;Provide</text><text x="36.072" y="1.67" class="f">an</text><text x="39.078" y="1.67" class="f">answer</text><text x="46.092" y="1.67" class="f">with</text><text x="51.102" y="1.67" class="f">source</text><text x="58.116" y="1.67" class="f">citations.&apos;</text></symbol><symbol id="29"><text x="4.008" y="1.67" class="f">Deterministic</text><text x="18.036" y="1.67" class="f">nodes</text><text x="24.048" y="1.67" class="f">(clean_query,</text><text x="38.076" y="1.67" class="f">log_completion)</text><text x="54.108" y="1.67" class="f">remained</text><text x="63.126" y="1.67" class="f">native,</text><text x="71.142" y="1.67" class="f">untouched</text></symbol><symbol id="30"><text x="1.002" y="1.67" class="f">Python.</text></symbol><symbol id="a"><path fill="transparent" d="M0 0h80v24H0z"/></symbol><symbol id="b"><path fill="#6f7683" d="M0 0h1.102v2.171H0z"/></symbol></defs><path class="a" d="M0 0h80v52.104H0z"/><g style="animation-duration:20.523886s;animation-iteration-count:infinite;animation-name:i;animation-timing-function:steps(1,end)"><svg width="2000"><svg><use xlink:href="#a"/><use xlink:href="#b" x="-.004"/></svg><svg x="80"><use xlink:href="#a"/><use xlink:href="#b" x="-.004" y="6.488"/><use xlink:href="#1"/><use xlink:href="#2" y="2.171"/><use xlink:href="#1" y="4.342"/></svg><svg x="160"><use xlink:href="#a"/><use xlink:href="#b" x="-.004" y="10.83"/><use xlink:href="#1"/><use xlink:href="#2" y="2.171"/><use xlink:href="#1" y="4.342"/><use xlink:href="#3" y="8.684"/></svg><svg x="240"><use xlink:href="#a"/><use xlink:href="#b" x="-.004" y="15.172"/><use xlink:href="#1"/><use xlink:href="#2" y="2.171"/><use xlink:href="#1" y="4.342"/><use xlink:href="#3" y="8.684"/><use xlink:href="#4" y="13.026"/></svg><svg x="320"><use xlink:href="#a"/><use xlink:href="#b" x="-.004" y="23.856"/><use xlink:href="#1"/><use xlink:href="#2" y="2.171"/><use xlink:href="#1" y="4.342"/><use xlink:href="#3" y="8.684"/><use xlink:href="#4" y="13.026"/><use xlink:href="#5" y="15.197"/><use xlink:href="#6" y="17.368"/><use xlink:href="#7" y="19.539"/><use xlink:href="#8" y="21.71"/></svg><svg x="400"><use xlink:href="#a"/><use xlink:href="#b" x="-.004" y="28.198"/><use xlink:href="#1"/><use xlink:href="#2" y="2.171"/><use xlink:href="#1" y="4.342"/><use xlink:href="#3" y="8.684"/><use xlink:href="#4" y="13.026"/><use xlink:href="#5" y="15.197"/><use xlink:href="#6" y="17.368"/><use xlink:href="#7" y="19.539"/><use xlink:href="#8" y="21.71"/><use xlink:href="#9" y="26.052"/></svg><svg x="480"><use xlink:href="#a"/><use xlink:href="#b" x="-.004" y="30.369"/><use xlink:href="#1"/><use xlink:href="#2" y="2.171"/><use xlink:href="#1" y="4.342"/><use xlink:href="#3" y="8.684"/><use xlink:href="#4" y="13.026"/><use xlink:href="#5" y="15.197"/><use xlink:href="#6" y="17.368"/><use xlink:href="#7" y="19.539"/><use xlink:href="#8" y="21.71"/><use xlink:href="#9" y="26.052"/><use xlink:href="#10" y="28.223"/></svg><svg x="560"><use xlink:href="#a"/><use xlink:href="#b" x="-.004" y="32.54"/><use xlink:href="#1"/><use xlink:href="#2" y="2.171"/><use xlink:href="#1" y="4.342"/><use xlink:href="#3" y="8.684"/><use xlink:href="#4" y="13.026"/><use xlink:href="#5" y="15.197"/><use xlink:href="#6" y="17.368"/><use xlink:href="#7" y="19.539"/><use xlink:href="#8" y="21.71"/><use xlink:href="#9" y="26.052"/><use xlink:href="#10" y="28.223"/><use xlink:href="#11" y="30.394"/></svg><svg x="640"><use xlink:href="#a"/><use xlink:href="#b" x="-.004" y="34.711"/><use xlink:href="#1"/><use xlink:href="#2" y="2.171"/><use xlink:href="#1" y="4.342"/><use xlink:href="#3" y="8.684"/><use xlink:href="#4" y="13.026"/><use xlink:href="#5" y="15.197"/><use xlink:href="#6" y="17.368"/><use xlink:href="#7" y="19.539"/><use xlink:href="#8" y="21.71"/><use xlink:href="#9" y="26.052"/><use xlink:href="#10" y="28.223"/><use xlink:href="#11" y="30.394"/><use xlink:href="#12" y="32.565"/></svg><svg x="720"><use xlink:href="#a"/><use xlink:href="#b" x="-.004" y="39.053"/><use xlink:href="#1"/><use xlink:href="#2" y="2.171"/><use xlink:href="#1" y="4.342"/><use xlink:href="#3" y="8.684"/><use xlink:href="#4" y="13.026"/><use xlink:href="#5" y="15.197"/><use xlink:href="#6" y="17.368"/><use xlink:href="#7" y="19.539"/><use xlink:href="#8" y="21.71"/><use xlink:href="#9" y="26.052"/><use xlink:href="#10" y="28.223"/><use xlink:href="#11" y="30.394"/><use xlink:href="#12" y="32.565"/><use xlink:href="#13" y="36.907"/></svg><svg x="800"><use xlink:href="#a"/><use xlink:href="#b" x="-.004" y="45.566"/><use xlink:href="#1"/><use xlink:href="#2" y="2.171"/><use xlink:href="#1" y="4.342"/><use xlink:href="#3" y="8.684"/><use xlink:href="#4" y="13.026"/><use xlink:href="#5" y="15.197"/><use xlink:href="#6" y="17.368"/><use xlink:href="#7" y="19.539"/><use xlink:href="#8" y="21.71"/><use xlink:href="#9" y="26.052"/><use xlink:href="#10" y="28.223"/><use xlink:href="#11" y="30.394"/><use xlink:href="#12" y="32.565"/><use xlink:href="#13" y="36.907"/><use xlink:href="#14" y="41.249"/><use xlink:href="#15" y="43.42"/></svg><svg x="880"><use xlink:href="#a"/><use xlink:href="#b" x="-.004" y="49.908"/><use xlink:href="#3" y="2.171"/><use xlink:href="#4" y="6.513"/><use xlink:href="#5" y="8.684"/><use xlink:href="#6" y="10.855"/><use xlink:href="#7" y="13.026"/><use xlink:href="#8" y="15.197"/><use xlink:href="#9" y="19.539"/><use xlink:href="#10" y="21.71"/><use xlink:href="#11" y="23.881"/><use xlink:href="#12" y="26.052"/><use xlink:href="#13" y="30.394"/><use xlink:href="#14" y="34.736"/><use xlink:href="#15" y="36.907"/><use xlink:href="#16" y="41.249"/><use xlink:href="#17" y="43.42"/><use xlink:href="#18" y="45.591"/><use xlink:href="#19" y="47.762"/></svg><svg x="960"><use xlink:href="#a"/><use xlink:href="#b" x="-.004" y="49.908"/><use xlink:href="#4" y="2.171"/><use xlink:href="#5" y="4.342"/><use xlink:href="#6" y="6.513"/><use xlink:href="#7" y="8.684"/><use xlink:href="#8" y="10.855"/><use xlink:href="#9" y="15.197"/><use xlink:href="#10" y="17.368"/><use xlink:href="#11" y="19.539"/><use xlink:href="#12" y="21.71"/><use xlink:href="#13" y="26.052"/><use xlink:href="#14" y="30.394"/><use xlink:href="#15" y="32.565"/><use xlink:href="#16" y="36.907"/><use xlink:href="#17" y="39.078"/><use xlink:href="#18" y="41.249"/><use xlink:href="#19" y="43.42"/><use xlink:href="#20" y="47.762"/></svg><svg x="1040"><use xlink:href="#a"/><use xlink:href="#b" x="78.996" y="49.908"/><use xlink:href="#4" y="2.171"/><use xlink:href="#5" y="4.342"/><use xlink:href="#6" y="6.513"/><use xlink:href="#7" y="8.684"/><use xlink:href="#8" y="10.855"/><use xlink:href="#9" y="15.197"/><use xlink:href="#10" y="17.368"/><use xlink:href="#11" y="19.539"/><use xlink:href="#12" y="21.71"/><use xlink:href="#13" y="26.052"/><use xlink:href="#14" y="30.394"/><use xlink:href="#15" y="32.565"/><use xlink:href="#16" y="36.907"/><use xlink:href="#17" y="39.078"/><use xlink:href="#18" y="41.249"/><use xlink:href="#19" y="43.42"/><use xlink:href="#20" y="47.762"/><use xlink:href="#21" y="49.933"/></svg><svg x="1120"><use xlink:href="#a"/><use xlink:href="#b" x="-.004" y="49.908"/><use xlink:href="#6"/><use xlink:href="#7" y="2.171"/><use xlink:href="#8" y="4.342"/><use xlink:href="#9" y="8.684"/><use xlink:href="#10" y="10.855"/><use xlink:href="#11" y="13.026"/><use xlink:href="#12" y="15.197"/><use xlink:href="#13" y="19.539"/><use xlink:href="#14" y="23.881"/><use xlink:href="#15" y="26.052"/><use xlink:href="#16" y="30.394"/><use xlink:href="#17" y="32.565"/><use xlink:href="#18" y="34.736"/><use xlink:href="#19" y="36.907"/><use xlink:href="#20" y="41.249"/><use xlink:href="#21" y="43.42"/><use xlink:href="#14" y="45.591"/><use xlink:href="#15" y="47.762"/></svg><svg x="1200"><use xlink:href="#a"/><use xlink:href="#b" x="78.996" y="49.908"/><use xlink:href="#6"/><use xlink:href="#7" y="2.171"/><use xlink:href="#8" y="4.342"/><use xlink:href="#9" y="8.684"/><use xlink:href="#10" y="10.855"/><use xlink:href="#11" y="13.026"/><use xlink:href="#12" y="15.197"/><use xlink:href="#13" y="19.539"/><use xlink:href="#14" y="23.881"/><use xlink:href="#15" y="26.052"/><use xlink:href="#16" y="30.394"/><use xlink:href="#17" y="32.565"/><use xlink:href="#18" y="34.736"/><use xlink:href="#19" y="36.907"/><use xlink:href="#20" y="41.249"/><use xlink:href="#21" y="43.42"/><use xlink:href="#14" y="45.591"/><use xlink:href="#15" y="47.762"/><use xlink:href="#22" y="49.933"/></svg><svg x="1280"><use xlink:href="#a"/><use xlink:href="#b" x="-.004" y="49.908"/><use xlink:href="#9" y="2.171"/><use xlink:href="#10" y="4.342"/><use xlink:href="#11" y="6.513"/><use xlink:href="#12" y="8.684"/><use xlink:href="#13" y="13.026"/><use xlink:href="#14" y="17.368"/><use xlink:href="#15" y="19.539"/><use xlink:href="#16" y="23.881"/><use xlink:href="#17" y="26.052"/><use xlink:href="#18" y="28.223"/><use xlink:href="#19" y="30.394"/><use xlink:href="#20" y="34.736"/><use xlink:href="#21" y="36.907"/><use xlink:href="#14" y="39.078"/><use xlink:href="#15" y="41.249"/><use xlink:href="#22" y="43.42"/><use xlink:href="#14" y="45.591"/><use xlink:href="#15" y="47.762"/></svg><svg x="1360"><use xlink:href="#a"/><use xlink:href="#b" x="78.996" y="49.908"/><use xlink:href="#9" y="2.171"/><use xlink:href="#10" y="4.342"/><use xlink:href="#11" y="6.513"/><use xlink:href="#12" y="8.684"/><use xlink:href="#13" y="13.026"/><use xlink:href="#14" y="17.368"/><use xlink:href="#15" y="19.539"/><use xlink:href="#16" y="23.881"/><use xlink:href="#17" y="26.052"/><use xlink:href="#18" y="28.223"/><use xlink:href="#19" y="30.394"/><use xlink:href="#20" y="34.736"/><use xlink:href="#21" y="36.907"/><use xlink:href="#14" y="39.078"/><use xlink:href="#15" y="41.249"/><use xlink:href="#22" y="43.42"/><use xlink:href="#14" y="45.591"/><use xlink:href="#15" y="47.762"/><use xlink:href="#23" y="49.933"/></svg><svg x="1440"><use xlink:href="#a"/><use xlink:href="#b" x="-.004" y="49.908"/><use xlink:href="#9"/><use xlink:href="#10" y="2.171"/><use xlink:href="#11" y="4.342"/><use xlink:href="#12" y="6.513"/><use xlink:href="#13" y="10.855"/><use xlink:href="#14" y="15.197"/><use xlink:href="#15" y="17.368"/><use xlink:href="#16" y="21.71"/><use xlink:href="#17" y="23.881"/><use xlink:href="#18" y="26.052"/><use xlink:href="#19" y="28.223"/><use xlink:href="#20" y="32.565"/><use xlink:href="#21" y="34.736"/><use xlink:href="#14" y="36.907"/><use xlink:href="#15" y="39.078"/><use xlink:href="#22" y="41.249"/><use xlink:href="#14" y="43.42"/><use xlink:href="#15" y="45.591"/><use xlink:href="#23" y="47.762"/></svg><svg x="1520"><use xlink:href="#a"/><use xlink:href="#b" x="-.004" y="49.908"/><use xlink:href="#11"/><use xlink:href="#12" y="2.171"/><use xlink:href="#13" y="6.513"/><use xlink:href="#14" y="10.855"/><use xlink:href="#15" y="13.026"/><use xlink:href="#16" y="17.368"/><use xlink:href="#17" y="19.539"/><use xlink:href="#18" y="21.71"/><use xlink:href="#19" y="23.881"/><use xlink:href="#20" y="28.223"/><use xlink:href="#21" y="30.394"/><use xlink:href="#14" y="32.565"/><use xlink:href="#15" y="34.736"/><use xlink:href="#22" y="36.907"/><use xlink:href="#14" y="39.078"/><use xlink:href="#15" y="41.249"/><use xlink:href="#23" y="43.42"/><use xlink:href="#24" y="45.591"/><use xlink:href="#25" y="47.762"/></svg><svg x="1600"><use xlink:href="#a"/><use xlink:href="#b" x="-.004" y="49.908"/><use xlink:href="#13" y="2.171"/><use xlink:href="#14" y="6.513"/><use xlink:href="#15" y="8.684"/><use xlink:href="#16" y="13.026"/><use xlink:href="#17" y="15.197"/><use xlink:href="#18" y="17.368"/><use xlink:href="#19" y="19.539"/><use xlink:href="#20" y="23.881"/><use xlink:href="#21" y="26.052"/><use xlink:href="#14" y="28.223"/><use xlink:href="#15" y="30.394"/><use xlink:href="#22" y="32.565"/><use xlink:href="#14" y="34.736"/><use xlink:href="#15" y="36.907"/><use xlink:href="#23" y="39.078"/><use xlink:href="#24" y="41.249"/><use xlink:href="#25" y="43.42"/><use xlink:href="#26" y="47.762"/></svg><svg x="1680"><use xlink:href="#a"/><use xlink:href="#b" x="-.004" y="49.908"/><use xlink:href="#13"/><use xlink:href="#14" y="4.342"/><use xlink:href="#15" y="6.513"/><use xlink:href="#16" y="10.855"/><use xlink:href="#17" y="13.026"/><use xlink:href="#18" y="15.197"/><use xlink:href="#19" y="17.368"/><use xlink:href="#20" y="21.71"/><use xlink:href="#21" y="23.881"/><use xlink:href="#14" y="26.052"/><use xlink:href="#15" y="28.223"/><use xlink:href="#22" y="30.394"/><use xlink:href="#14" y="32.565"/><use xlink:href="#15" y="34.736"/><use xlink:href="#23" y="36.907"/><use xlink:href="#24" y="39.078"/><use xlink:href="#25" y="41.249"/><use xlink:href="#26" y="45.591"/><use xlink:href="#27" y="47.762"/></svg><svg x="1760"><use xlink:href="#a"/><use xlink:href="#b" x="-.004" y="49.908"/><use xlink:href="#14" y="2.171"/><use xlink:href="#15" y="4.342"/><use xlink:href="#16" y="8.684"/><use xlink:href="#17" y="10.855"/><use xlink:href="#18" y="13.026"/><use xlink:href="#19" y="15.197"/><use xlink:href="#20" y="19.539"/><use xlink:href="#21" y="21.71"/><use xlink:href="#14" y="23.881"/><use xlink:href="#15" y="26.052"/><use xlink:href="#22" y="28.223"/><use xlink:href="#14" y="30.394"/><use xlink:href="#15" y="32.565"/><use xlink:href="#23" y="34.736"/><use xlink:href="#24" y="36.907"/><use xlink:href="#25" y="39.078"/><use xlink:href="#26" y="43.42"/><use xlink:href="#27" y="45.591"/><use xlink:href="#28" y="47.762"/></svg><svg x="1840"><use xlink:href="#a"/><use xlink:href="#b" x="-.004" y="49.908"/><use xlink:href="#15"/><use xlink:href="#16" y="4.342"/><use xlink:href="#17" y="6.513"/><use xlink:href="#18" y="8.684"/><use xlink:href="#19" y="10.855"/><use xlink:href="#20" y="15.197"/><use xlink:href="#21" y="17.368"/><use xlink:href="#14" y="19.539"/><use xlink:href="#15" y="21.71"/><use xlink:href="#22" y="23.881"/><use xlink:href="#14" y="26.052"/><use xlink:href="#15" y="28.223"/><use xlink:href="#23" y="30.394"/><use xlink:href="#24" y="32.565"/><use xlink:href="#25" y="34.736"/><use xlink:href="#26" y="39.078"/><use xlink:href="#27" y="41.249"/><use xlink:href="#28" y="43.42"/><use xlink:href="#29" y="45.591"/><use xlink:href="#30" y="47.762"/></svg><svg x="1920"><use xlink:href="#a"/><use xlink:href="#b" x="-.004" y="49.908"/><use xlink:href="#16"/><use xlink:href="#17" y="2.171"/><use xlink:href="#18" y="4.342"/><use xlink:href="#19" y="6.513"/><use xlink:href="#20" y="10.855"/><use xlink:href="#21" y="13.026"/><use xlink:href="#14" y="15.197"/><use xlink:href="#15" y="17.368"/><use xlink:href="#22" y="19.539"/><use xlink:href="#14" y="21.71"/><use xlink:href="#15" y="23.881"/><use xlink:href="#23" y="26.052"/><use xlink:href="#24" y="28.223"/><use xlink:href="#25" y="30.394"/><use xlink:href="#26" y="34.736"/><use xlink:href="#27" y="36.907"/><use xlink:href="#28" y="39.078"/><use xlink:href="#29" y="41.249"/><use xlink:href="#30" y="43.42"/><use xlink:href="#1" y="45.591"/></svg></svg></g></g></svg></svg>